<?xml version="1.0" standalone="no"?>
<!DOCTYPE svg PUBLIC "-//W3C//DTD SVG 20010904//EN"
 "http://www.w3.org/TR/2001/REC-SVG-20010904/DTD/svg10.dtd">
<svg version="1.0" xmlns="http://www.w3.org/2000/svg"
 width="500.000000pt" height="500.000000pt" viewBox="0 0 500.000000 500.000000"
 preserveAspectRatio="xMidYMid meet">
<metadata>
Created by potrace 1.15, written by Peter Selinger 2001-2017
</metadata>
<g transform="translate(0.000000,500.000000) scale(0.100000,-0.100000)"
fill="#000000" stroke="none">
<path d="M4315 4050 c-163 -23 -231 -50 -730 -295 -115 -56 -302 -146 -415
-200 -113 -53 -270 -128 -350 -167 -80 -39 -252 -122 -383 -184 -130 -63 -245
-118 -255 -123 -9 -6 -174 -85 -367 -177 -192 -91 -363 -174 -380 -184 -67
-41 -281 -131 -300 -127 -83 19 -198 54 -531 163 l-380 125 -108 -50 c-83 -39
-105 -54 -99 -65 10 -18 188 -218 343 -385 127 -138 384 -380 442 -417 86 -55
247 -53 618 8 253 41 664 174 968 314 112 52 211 94 219 94 12 0 14 -8 9 -42
-3 -24 -28 -257 -56 -518 -64 -598 -95 -896 -115 -1079 -19 -180 -19 -178 5
-191 17 -9 50 3 199 75 98 47 183 85 189 85 18 0 72 51 89 84 9 17 65 173 124
346 59 173 148 430 199 570 162 451 200 558 200 568 0 5 41 124 91 263 50 140
98 275 107 302 l16 47 265 131 c147 72 302 147 346 166 44 20 162 75 263 124
179 88 185 92 286 189 110 107 148 166 166 258 14 74 4 109 -47 159 -52 53
-145 96 -251 118 -92 19 -293 27 -377 15z"/>
<path d="M1370 3881 c-58 -26 -147 -69 -197 -95 -114 -59 -121 -78 -45 -126
151 -97 394 -255 493 -320 63 -42 149 -98 192 -124 l78 -49 52 22 c29 13 106
49 172 81 66 33 219 107 339 165 121 58 215 109 210 114 -5 4 -65 27 -134 51
-69 23 -210 74 -315 112 -104 39 -291 103 -414 144 -275 91 -283 91 -431 25z"/>
</g>
</svg>
