<?xml version="1.0" standalone="no"?>
<!DOCTYPE svg PUBLIC "-//W3C//DTD SVG 20010904//EN"
 "http://www.w3.org/TR/2001/REC-SVG-20010904/DTD/svg10.dtd">
<svg version="1.0" xmlns="http://www.w3.org/2000/svg"
 width="980.000000pt" height="798.000000pt" viewBox="0 0 980.000000 798.000000"
 preserveAspectRatio="xMidYMid meet">
<metadata>
Created by potrace 1.15, written by Peter Selinger 2001-2017
</metadata>
<g transform="translate(0.000000,798.000000) scale(0.100000,-0.100000)"
fill="#000000" stroke="none">
<path d="M2672 7929 l-62 -51 0 -1477 c1 -1496 6 -1819 34 -1884 31 -76 -40
-70 1000 -78 512 -4 2053 -8 3424 -8 l2493 -1 55 51 54 52 0 1666 0 1667 -58
57 -58 57 -3409 0 -3410 0 -63 -51z m6003 -366 c10 -96 49 -206 101 -285 82
-123 228 -236 359 -278 22 -7 76 -18 120 -25 l80 -11 3 -761 2 -761 -57 -7
c-97 -11 -144 -25 -241 -72 -78 -37 -107 -58 -175 -126 -117 -117 -168 -220
-192 -382 l-11 -80 -2522 -3 c-1387 -1 -2522 0 -2522 2 0 2 -7 43 -15 91 -54
307 -292 536 -592 570 l-63 7 0 763 0 762 64 7 c125 13 259 71 369 161 107 87
212 287 224 425 l6 70 2527 0 2528 0 7 -67z"/>
<path d="M5984 7432 c-254 -65 -490 -274 -634 -561 -49 -99 -107 -285 -125
-406 -24 -150 -16 -479 13 -606 109 -466 380 -786 746 -879 363 -92 757 146
960 581 96 206 118 325 119 634 1 318 -23 448 -119 654 -138 295 -368 506
-629 577 -92 25 -245 27 -331 6z m206 -292 l68 0 7 -82 c4 -46 11 -92 15 -104
6 -14 33 -31 77 -50 135 -56 215 -122 268 -222 16 -28 26 -54 24 -56 -11 -11
-208 -66 -236 -66 -18 0 -65 17 -108 40 -70 37 -82 40 -154 40 -149 0 -240
-57 -241 -151 0 -77 60 -112 234 -135 216 -28 327 -75 420 -175 76 -82 100
-147 101 -270 0 -90 -2 -99 -37 -170 -61 -123 -152 -202 -280 -240 -43 -12
-69 -26 -72 -37 -2 -9 -7 -56 -11 -104 l-7 -88 -114 0 c-130 0 -118 -10 -129
110 -8 78 -24 106 -67 115 -18 4 -63 23 -101 42 -100 53 -221 192 -204 236 7
18 147 65 218 74 40 5 52 2 81 -20 56 -43 101 -57 186 -57 97 0 168 20 209 60
43 42 48 73 23 125 -29 61 -77 82 -226 100 -218 27 -294 56 -392 153 -234 230
-129 605 197 703 54 16 67 37 75 123 4 38 11 77 16 87 10 17 52 29 78 22 8 -1
44 -3 82 -3z"/>
<path d="M4065 6587 c-126 -42 -207 -123 -255 -254 -19 -52 -22 -77 -18 -151
3 -75 9 -100 36 -155 37 -74 114 -152 186 -186 228 -111 499 26 563 283 14 59
15 79 5 139 -24 137 -121 262 -240 308 -70 27 -217 36 -277 16z"/>
<path d="M7973 6586 c-104 -34 -194 -114 -241 -214 -24 -51 -27 -69 -27 -167
0 -105 2 -114 33 -177 78 -158 249 -248 418 -219 93 17 150 46 215 111 68 67
104 134 120 223 30 164 -69 344 -230 421 -57 27 -79 31 -156 33 -55 2 -106 -3
-132 -11z"/>
<path d="M2697 3700 c-138 -16 -368 -85 -490 -147 -141 -71 -1892 -1284 -2192
-1518 -20 -16 -19 -16 10 -73 40 -78 383 -588 660 -982 307 -437 324 -460 350
-460 28 0 104 47 347 215 270 186 458 303 527 327 87 31 194 48 297 48 81 0
108 -5 201 -36 181 -60 667 -235 1298 -466 808 -296 1316 -479 1514 -544 244
-81 299 -78 494 32 202 115 839 548 2587 1762 1089 756 1341 935 1376 976 19
22 54 78 77 124 36 74 41 93 45 171 12 246 -85 425 -283 522 -132 64 -319 73
-425 19 -87 -44 -804 -532 -1976 -1344 l-489 -339 0 -161 c-1 -181 -13 -242
-70 -361 -101 -208 -316 -389 -510 -430 -46 -10 -129 -15 -245 -15 l-175 0
-910 458 c-884 445 -1064 540 -1112 588 -56 56 6 184 88 184 48 0 244 -92
1099 -516 448 -222 850 -415 892 -429 136 -45 293 -31 420 37 77 41 166 137
212 229 l36 72 0 152 0 152 -37 74 c-67 136 -113 170 -468 356 -597 313 -2013
1024 -2305 1158 -171 78 -310 130 -405 150 -94 20 -327 28 -438 15z"/>
</g>
</svg>
