<?xml version="1.0" standalone="no"?>
<!DOCTYPE svg PUBLIC "-//W3C//DTD SVG 20010904//EN"
 "http://www.w3.org/TR/2001/REC-SVG-20010904/DTD/svg10.dtd">
<svg version="1.0" xmlns="http://www.w3.org/2000/svg"
 width="980.000000pt" height="878.000000pt" viewBox="0 0 980.000000 878.000000"
 preserveAspectRatio="xMidYMid meet">
<metadata>
Created by potrace 1.15, written by Peter Selinger 2001-2017
</metadata>
<g transform="translate(0.000000,878.000000) scale(0.100000,-0.100000)"
fill="#000000" stroke="none">
<path d="M4645 8774 c-11 -2 -45 -9 -75 -15 -104 -21 -275 -81 -395 -139 -492
-239 -832 -675 -937 -1202 -18 -92 -22 -147 -22 -293 0 -189 9 -273 50 -443
86 -353 367 -1064 744 -1877 126 -273 472 -969 579 -1168 149 -275 200 -336
290 -345 139 -13 184 47 492 652 659 1299 1090 2339 1198 2891 39 199 36 398
-9 613 -92 442 -382 851 -775 1092 -149 92 -347 174 -496 205 -112 24 -566 44
-644 29z m455 -830 c418 -86 733 -539 671 -964 -54 -367 -322 -658 -687 -746
-103 -25 -277 -23 -383 5 -336 88 -586 348 -658 686 -21 98 -13 305 16 400 75
251 248 456 473 559 176 82 364 101 568 60z"/>
<path d="M185 7264 c-54 -36 -109 -89 -151 -145 l-34 -47 0 -3414 0 -3414 43
-69 c45 -75 106 -128 165 -145 70 -22 1347 -29 5365 -29 3657 -1 3981 0 4010
15 71 37 131 90 173 155 l44 68 0 3416 0 3417 -35 48 c-40 55 -105 116 -156
148 l-36 22 -1269 -2 -1269 -3 -7 -200 c-4 -116 -15 -243 -26 -303 -18 -103
-18 -103 2 -115 18 -10 848 -21 1983 -26 l172 -1 3 -217 3 -218 -855 -857
-855 -858 -457 457 c-251 251 -459 455 -461 453 -2 -3 -43 -96 -92 -208 l-88
-204 679 -679 679 -679 -1095 -1095 c-602 -602 -1099 -1095 -1105 -1095 -13 0
-1945 1932 -1945 1945 0 5 98 108 217 227 l218 218 -100 200 c-55 110 -102
200 -105 200 -3 0 -289 -283 -635 -630 l-630 -630 -293 293 c-162 160 -455
458 -653 660 -328 336 -358 370 -348 389 6 11 402 413 880 893 478 480 869
878 869 885 0 14 -130 433 -136 440 -3 2 -441 -432 -974 -965 l-970 -970 -138
140 -138 140 4 881 4 881 426 6 c235 4 728 7 1096 7 616 0 668 1 662 16 -23
59 -48 277 -52 439 l-3 180 -1273 3 -1273 2 -40 -26z m8984 -3546 c0 -511 -2
-928 -7 -928 -4 0 -320 313 -702 695 l-695 695 695 695 695 695 6 -462 c3
-255 7 -880 8 -1390z m-7714 -260 l786 -782 -798 -798 c-439 -439 -802 -798
-807 -798 -10 0 0 3061 10 3123 4 20 10 37 14 37 4 0 362 -352 795 -782z
m7613 -1191 l102 -104 0 -752 0 -751 -1392 1 c-766 0 -1424 3 -1461 8 -62 7
-71 10 -95 42 -14 19 -108 117 -209 219 -101 102 -183 190 -183 196 0 6 491
500 1090 1098 l1090 1088 478 -470 c262 -259 523 -517 580 -575z m-4598 -402
l1205 -1205 -2420 0 -2420 0 1205 1205 c663 663 1209 1205 1215 1205 6 0 552
-542 1215 -1205z"/>
<path d="M7950 2799 c-19 -12 -105 -92 -191 -178 -186 -187 -205 -221 -170
-294 14 -29 80 -101 186 -206 176 -173 225 -207 276 -189 39 14 156 116 280
245 147 154 163 193 110 274 -36 56 -315 331 -358 353 -44 22 -91 20 -133 -5z"/>
<path d="M3230 2583 c-41 -21 -369 -342 -399 -393 -11 -19 -21 -45 -21 -57 0
-65 390 -453 454 -453 13 0 50 19 82 43 80 59 286 268 342 346 l45 63 -18 34
c-42 78 -277 318 -394 402 -51 37 -46 36 -91 15z"/>
<path d="M7397 5850 c-64 -40 -297 -268 -344 -337 -45 -65 -49 -113 -12 -165
66 -95 301 -325 372 -365 34 -19 78 -15 119 10 98 59 357 329 379 394 21 65
-6 109 -175 279 -149 150 -230 214 -271 214 -12 0 -42 -13 -68 -30z"/>
</g>
</svg>
