<?xml version="1.0" standalone="no"?>
<!DOCTYPE svg PUBLIC "-//W3C//DTD SVG 20010904//EN"
 "http://www.w3.org/TR/2001/REC-SVG-20010904/DTD/svg10.dtd">
<svg version="1.0" xmlns="http://www.w3.org/2000/svg"
 width="980.000000pt" height="916.000000pt" viewBox="0 0 980.000000 916.000000"
 preserveAspectRatio="xMidYMid meet">
<metadata>
Created by potrace 1.15, written by Peter Selinger 2001-2017
</metadata>
<g transform="translate(0.000000,916.000000) scale(0.100000,-0.100000)"
fill="#000000" stroke="none">
<path d="M2311 9139 c-516 -50 -1083 -214 -1438 -418 -156 -89 -271 -178 -409
-316 -174 -173 -283 -328 -366 -517 -144 -332 -126 -648 54 -924 72 -109 230
-265 353 -347 451 -298 1028 -388 1659 -257 54 11 110 20 125 20 l27 0 -27
-220 c-128 -1041 -74 -1837 177 -2613 103 -317 196 -539 454 -1087 199 -421
280 -607 280 -640 0 -14 -15 -55 -34 -90 -51 -96 -70 -171 -62 -244 17 -147
131 -617 210 -859 50 -152 98 -240 176 -317 129 -129 273 -181 590 -215 85 -9
214 -27 285 -40 209 -38 304 -46 544 -46 219 0 292 6 541 45 52 8 149 19 215
25 66 6 168 16 226 21 206 20 299 57 404 164 88 90 133 167 180 308 79 237
186 669 216 865 16 104 5 159 -56 275 l-43 85 23 69 c27 81 77 191 285 634
183 390 242 524 325 735 187 476 304 965 336 1397 13 174 6 904 -11 1133 -14
195 -40 445 -55 540 -7 44 -11 82 -9 84 2 2 72 -11 156 -28 239 -48 316 -56
553 -55 280 0 421 20 640 91 273 88 504 224 672 394 101 103 148 169 204 284
56 116 77 194 85 320 28 404 -240 884 -670 1199 -363 266 -873 444 -1504 527
-146 19 -483 38 -472 27 3 -3 84 -38 180 -78 218 -89 377 -170 511 -259 259
-171 439 -380 519 -600 29 -78 31 -94 28 -181 -3 -81 -8 -105 -33 -155 -81
-167 -272 -271 -590 -320 -253 -39 -1039 -40 -1830 -3 -316 14 -1751 14 -2065
0 -845 -40 -1595 -36 -1860 9 -311 52 -484 150 -563 316 -76 161 -36 346 123
571 127 181 360 366 628 501 46 23 165 76 265 117 100 42 184 78 186 80 7 7
-250 2 -338 -7z m727 -3839 c104 -57 132 -76 127 -89 -77 -198 -81 -357 -14
-462 43 -68 122 -136 197 -172 59 -28 68 -29 160 -24 80 4 109 10 167 35 88
39 106 39 150 1 53 -47 47 -64 -32 -89 -102 -31 -303 -70 -365 -70 -69 0 -158
23 -213 55 -54 32 -126 109 -155 165 -42 83 -97 298 -145 572 -28 158 -28 161
-17 155 4 -2 67 -37 140 -77z m3872 67 c0 -66 -87 -478 -130 -617 -49 -161
-139 -257 -279 -301 -83 -25 -158 -24 -305 6 -177 36 -256 62 -256 84 0 24 64
81 91 81 11 0 52 -14 92 -32 67 -30 80 -32 182 -33 96 0 116 3 159 24 71 35
170 132 203 199 25 52 28 67 27 162 0 89 -5 119 -31 196 l-30 91 86 50 c47 28
106 62 131 76 52 30 60 32 60 14z m-2976 -3835 c2 -4 -2 -32 -10 -62 -18 -71
-18 -213 1 -277 14 -47 63 -126 216 -346 52 -76 53 -79 35 -93 -26 -18 -154
-18 -222 0 -267 71 -455 416 -334 612 43 68 137 130 243 159 63 17 65 17 71 7z
m2031 -19 c106 -33 190 -94 226 -164 89 -175 -41 -455 -263 -564 -69 -33 -88
-38 -170 -42 -88 -5 -148 5 -148 25 0 5 47 76 105 158 159 228 169 248 173
374 3 69 -1 126 -11 167 -8 34 -12 64 -10 67 5 5 32 -1 98 -21z"/>
</g>
</svg>
