<?xml version="1.0" standalone="no"?>
<!DOCTYPE svg PUBLIC "-//W3C//DTD SVG 20010904//EN"
 "http://www.w3.org/TR/2001/REC-SVG-20010904/DTD/svg10.dtd">
<svg version="1.0" xmlns="http://www.w3.org/2000/svg"
 width="200.000000pt" height="200.000000pt" viewBox="0 0 200.000000 200.000000"
 preserveAspectRatio="xMidYMid meet">
<metadata>
Created by potrace 1.15, written by Peter Selinger 2001-2017
</metadata>
<g transform="translate(0.000000,200.000000) scale(0.100000,-0.100000)"
fill="#000000" stroke="none">
<path d="M1545 1725 c-132 -28 -263 -59 -291 -69 -29 -9 -108 -57 -179 -106
-86 -62 -135 -90 -154 -90 -16 0 -47 -14 -72 -33 -36 -27 -59 -35 -128 -45
-149 -21 -210 -60 -336 -217 -82 -103 -88 -121 -55 -185 11 -22 20 -46 20 -55
0 -8 -50 -139 -110 -290 -116 -291 -127 -334 -88 -359 51 -31 306 -58 433 -45
112 11 184 40 245 97 41 39 62 75 130 219 70 147 81 179 79 215 -3 31 4 58 23
98 37 74 45 149 24 229 -20 79 -20 134 0 173 9 17 13 40 10 51 -7 28 144 193
211 229 33 18 117 41 273 73 124 26 231 53 239 60 18 17 6 82 -17 93 -11 5
-104 -10 -257 -43z m-897 -923 c23 -7 23 -7 -7 -25 -36 -21 -61 -64 -61 -104
0 -36 28 -199 41 -240 6 -18 17 -33 26 -33 12 0 14 14 8 93 -3 50 -8 110 -11
133 -4 31 0 47 17 68 23 30 85 61 142 71 30 6 37 3 60 -25 15 -17 27 -38 27
-46 0 -24 -80 -206 -105 -239 -53 -71 -185 -112 -331 -102 -47 2 -87 7 -90 9
-5 5 97 231 165 367 44 86 52 91 119 73z"/>
</g>
</svg>
