<?xml version="1.0" standalone="no"?>
<!DOCTYPE svg PUBLIC "-//W3C//DTD SVG 20010904//EN"
 "http://www.w3.org/TR/2001/REC-SVG-20010904/DTD/svg10.dtd">
<svg version="1.0" xmlns="http://www.w3.org/2000/svg"
 width="400.000000pt" height="400.000000pt" viewBox="0 0 400.000000 400.000000"
 preserveAspectRatio="xMidYMid meet">
<metadata>
Created by potrace 1.15, written by Peter Selinger 2001-2017
</metadata>
<g transform="translate(0.000000,400.000000) scale(0.100000,-0.100000)"
fill="#000000" stroke="none">
<path d="M810 2238 l0 -1578 -250 0 -250 0 0 -225 0 -225 1680 0 1680 0 0 225
0 225 -250 0 -250 0 0 1578 0 1577 -1180 0 -1180 0 0 -1577z m2094 1286 c14
-14 16 -150 16 -1350 0 -901 -3 -1342 -10 -1355 -10 -19 -31 -19 -920 -19
-889 0 -910 0 -920 19 -7 13 -10 454 -10 1355 0 1200 2 1336 16 1350 14 14
110 16 914 16 804 0 900 -2 914 -16z"/>
<path d="M1780 3270 l0 -160 -160 0 -160 0 0 -205 0 -205 160 0 160 0 0 -160
0 -160 210 0 210 0 0 160 0 160 160 0 160 0 0 205 0 205 -160 0 -160 0 0 160
0 160 -210 0 -210 0 0 -160z"/>
<path d="M1215 2087 c-3 -7 -4 -109 -3 -227 l3 -215 193 -3 192 -2 -2 227 -3
228 -188 3 c-146 2 -189 0 -192 -11z"/>
<path d="M1804 2087 c-2 -7 -3 -109 -2 -227 l3 -215 193 -3 192 -2 0 230 0
230 -190 0 c-145 0 -192 -3 -196 -13z"/>
<path d="M2387 2094 c-4 -4 -7 -108 -7 -231 l0 -223 193 2 192 3 0 225 0 225
-186 3 c-102 1 -188 -1 -192 -4z"/>
<path d="M1214 1397 c-2 -7 -3 -109 -2 -227 l3 -215 193 -3 192 -2 0 230 0
230 -190 0 c-145 0 -192 -3 -196 -13z"/>
<path d="M1795 1397 c-3 -7 -4 -109 -3 -227 l3 -215 195 0 195 0 0 225 0 225
-193 3 c-150 2 -194 0 -197 -11z"/>
<path d="M2380 1180 l0 -230 193 2 192 3 0 225 0 225 -192 3 -193 2 0 -230z"/>
</g>
</svg>
