<?xml version="1.0" standalone="no"?>
<!DOCTYPE svg PUBLIC "-//W3C//DTD SVG 20010904//EN"
 "http://www.w3.org/TR/2001/REC-SVG-20010904/DTD/svg10.dtd">
<svg version="1.0" xmlns="http://www.w3.org/2000/svg"
 width="500.000000pt" height="500.000000pt" viewBox="0 0 500.000000 500.000000"
 preserveAspectRatio="xMidYMid meet">
<metadata>
Created by potrace 1.15, written by Peter Selinger 2001-2017
</metadata>
<g transform="translate(0.000000,500.000000) scale(0.100000,-0.100000)"
fill="#000000" stroke="none">
<path d="M2012 4987 c-52 -16 -128 -90 -149 -145 -16 -43 -18 -86 -18 -502 0
-443 1 -456 21 -501 27 -57 65 -94 129 -125 l50 -24 455 0 455 0 50 24 c64 31
102 68 129 125 20 45 21 58 21 501 0 360 -3 463 -14 494 -19 54 -77 115 -136
142 l-50 24 -455 -1 c-292 -1 -467 -5 -488 -12z m252 -223 c13 -13 16 -42 16
-160 l0 -144 220 0 220 0 0 144 c0 178 -1 176 110 176 70 0 81 -2 94 -22 14
-19 16 -76 16 -413 0 -337 -2 -394 -16 -413 -13 -20 -24 -22 -94 -22 -111 0
-110 -2 -110 176 l0 144 -220 0 -220 0 0 -144 c0 -178 1 -176 -110 -176 -70 0
-81 2 -94 22 -14 19 -16 76 -16 413 0 337 2 394 16 413 13 20 24 22 94 22 58
0 83 -4 94 -16z"/>
<path d="M910 4353 c-14 -3 -40 -16 -58 -29 -67 -52 -62 129 -62 -2147 l0
-2064 22 -33 c13 -18 36 -43 51 -54 28 -21 38 -21 573 -24 l544 -2 0 410 c0
449 -1 443 60 520 18 22 55 51 88 67 l57 28 315 0 315 0 57 -28 c33 -16 70
-45 88 -67 61 -77 60 -71 60 -520 l0 -410 539 0 538 0 34 23 c18 12 44 38 56
56 l23 34 0 2064 c0 2287 6 2095 -67 2150 l-36 28 -394 3 -393 3 0 -229 c0
-189 -3 -240 -18 -298 -37 -141 -139 -247 -278 -289 -73 -22 -975 -22 -1048 0
-139 42 -240 147 -277 286 -16 61 -19 109 -19 301 l0 228 -372 -1 c-205 -1
-384 -4 -398 -6z m610 -343 c32 -32 40 -64 40 -164 0 -173 -18 -191 -198 -191
l-124 0 -29 33 c-29 32 -29 33 -29 156 0 119 1 126 26 155 l26 31 134 0 c122
0 136 -2 154 -20z m2274 -11 c25 -29 26 -36 26 -155 0 -123 0 -124 -29 -156
l-29 -33 -124 0 c-180 0 -198 18 -198 191 0 100 8 132 40 164 18 18 32 20 154
20 l134 0 26 -31z m-2281 -740 c38 -29 50 -80 45 -198 -3 -102 -3 -103 -36
-132 -32 -28 -34 -29 -148 -29 -122 0 -163 11 -184 49 -13 25 -13 257 0 281
21 39 59 49 181 50 103 0 119 -2 142 -21z m740 10 c50 -26 57 -46 57 -177 0
-68 -5 -132 -10 -143 -21 -38 -62 -49 -184 -49 -114 0 -116 1 -148 29 l-33 29
0 132 0 132 33 29 c32 28 34 29 148 29 65 0 125 -5 137 -11z m779 -18 l33 -29
0 -132 0 -132 -33 -29 c-32 -28 -34 -29 -148 -29 -122 0 -163 11 -184 49 -5
11 -10 75 -10 143 1 176 12 187 192 188 116 0 118 0 150 -29z m738 14 c16 -8
34 -24 40 -34 5 -11 10 -77 10 -146 l0 -127 -31 -29 c-31 -29 -32 -29 -155
-29 -123 0 -124 0 -156 29 -33 29 -33 30 -36 132 -5 118 7 169 45 198 22 18
40 21 140 21 82 0 122 -4 143 -15z m-1509 -755 c42 -23 49 -49 49 -179 0 -122
-1 -126 -27 -153 -27 -28 -27 -28 -156 -28 -73 0 -137 5 -149 11 -33 18 -48
70 -48 174 0 107 14 153 51 172 13 7 65 14 114 16 104 3 141 0 166 -13z m-742
-11 c34 -32 41 -61 41 -165 0 -103 -15 -155 -48 -173 -12 -6 -77 -11 -150 -11
l-130 0 -26 31 c-25 29 -26 36 -26 154 0 118 1 125 26 154 l26 31 132 0 c120
0 134 -2 155 -21z m1506 5 c34 -22 45 -64 45 -171 0 -102 -15 -154 -48 -172
-12 -6 -77 -11 -150 -11 l-130 0 -26 31 c-25 29 -26 36 -26 156 0 124 0 125
29 154 29 29 30 29 156 29 97 0 131 -4 150 -16z m769 -15 c25 -29 26 -36 26
-154 0 -118 -1 -125 -26 -154 l-26 -31 -130 0 c-73 0 -138 5 -150 11 -33 18
-48 70 -48 173 0 104 7 133 41 165 21 19 35 21 155 21 l132 0 26 -31z m-2288
-738 c45 -28 57 -72 52 -198 -4 -104 -4 -106 -36 -134 -32 -28 -35 -29 -148
-29 -122 0 -163 11 -184 49 -13 26 -13 257 1 282 18 35 66 48 179 49 86 0 111
-3 136 -19z m743 8 c50 -18 61 -51 61 -184 0 -64 -5 -125 -10 -136 -21 -38
-62 -49 -184 -49 -114 0 -116 1 -148 29 l-33 29 0 130 c0 116 2 132 20 152 11
12 29 26 40 31 30 12 217 11 254 -2z m788 -22 c28 -27 28 -29 28 -158 l0 -131
-33 -29 c-32 -28 -34 -29 -148 -29 -122 0 -163 11 -184 49 -14 28 -13 244 2
277 20 44 59 54 190 52 114 -3 119 -4 145 -31z m728 19 c18 -8 38 -23 44 -34
14 -26 14 -257 1 -283 -21 -38 -62 -49 -184 -49 -114 0 -116 1 -148 29 l-33
29 -3 114 c-3 126 10 171 58 195 35 18 221 17 265 -1z m-2243 -771 c31 -31 38
-62 38 -174 0 -157 -35 -186 -215 -179 -154 6 -165 19 -165 199 0 120 0 121
29 150 l29 29 130 0 c125 0 130 -1 154 -25z m2272 -6 c25 -29 26 -36 26 -149
0 -179 -11 -192 -165 -198 -180 -7 -215 22 -215 179 0 112 7 143 38 174 24 24
29 25 157 25 l133 0 26 -31z"/>
</g>
</svg>
