<?xml version="1.0" standalone="no"?>
<!DOCTYPE svg PUBLIC "-//W3C//DTD SVG 20010904//EN"
 "http://www.w3.org/TR/2001/REC-SVG-20010904/DTD/svg10.dtd">
<svg version="1.0" xmlns="http://www.w3.org/2000/svg"
 width="200.000000pt" height="200.000000pt" viewBox="0 0 200.000000 200.000000"
 preserveAspectRatio="xMidYMid meet">
<metadata>
Created by potrace 1.15, written by Peter Selinger 2001-2017
</metadata>
<g transform="translate(0.000000,200.000000) scale(0.100000,-0.100000)"
fill="#000000" stroke="none">
<path d="M180 1203 c0 -371 4 -643 9 -638 5 6 16 35 26 65 21 66 96 219 136
277 l29 42 0 365 0 366 125 0 125 0 0 85 0 85 -225 0 -225 0 0 -647z"/>
<path d="M1560 1765 l0 -85 125 0 125 0 0 -370 0 -370 -85 0 -85 0 0 -220 0
-220 180 0 180 0 0 675 0 675 -220 0 -220 0 0 -85z"/>
<path d="M460 1325 c0 -140 3 -255 8 -255 4 0 24 16 45 35 l37 35 0 180 0 180
545 0 545 0 0 -230 0 -230 40 0 40 0 0 270 0 270 -630 0 -630 0 0 -255z"/>
<path d="M650 1295 l0 -85 70 0 70 0 0 85 0 85 -70 0 -70 0 0 -85z"/>
<path d="M900 1295 l0 -85 70 0 70 0 0 85 0 85 -70 0 -70 0 0 -85z"/>
<path d="M1150 1295 l0 -85 70 0 70 0 0 85 0 85 -70 0 -70 0 0 -85z"/>
<path d="M1400 1295 l0 -85 70 0 70 0 0 85 0 85 -70 0 -70 0 0 -85z"/>
<path d="M614 1086 c-133 -138 -246 -330 -314 -535 l-39 -116 -56 -29 c-106
-54 -211 -173 -203 -228 3 -23 4 -23 176 -26 l172 -2 11 27 c34 85 83 174 103
190 18 15 24 32 30 92 14 159 66 355 122 461 19 36 61 101 94 145 33 44 60 83
60 88 0 4 -19 7 -42 7 -40 0 -48 -5 -114 -74z"/>
<path d="M910 1123 c-36 -45 -111 -187 -145 -277 -37 -99 -65 -217 -75 -321
-8 -88 -11 -98 -44 -136 -42 -50 -89 -163 -84 -205 2 -23 8 -29 27 -29 26 0
26 0 69 96 16 37 45 84 64 105 34 37 35 43 41 134 13 216 108 463 235 609 23
28 42 52 42 55 0 3 -22 6 -49 6 -45 0 -52 -3 -81 -37z"/>
<path d="M1152 1103 c-110 -162 -191 -391 -208 -587 -6 -72 -11 -85 -45 -130
-49 -64 -97 -191 -82 -215 18 -28 51 -26 64 6 40 94 60 133 91 174 31 40 36
55 42 125 21 234 99 445 223 605 29 38 53 71 53 74 0 3 -22 5 -50 5 -49 0 -50
0 -88 -57z"/>
<path d="M1404 1074 c-105 -157 -173 -351 -195 -553 -10 -93 -15 -110 -39
-136 -52 -56 -109 -198 -89 -222 16 -18 292 -19 306 -1 6 7 13 92 16 188 10
264 58 549 123 731 13 37 24 69 24 73 0 3 -20 6 -44 6 l-45 0 -57 -86z"/>
</g>
</svg>
