<?xml version="1.0" standalone="no"?>
<!DOCTYPE svg PUBLIC "-//W3C//DTD SVG 20010904//EN"
 "http://www.w3.org/TR/2001/REC-SVG-20010904/DTD/svg10.dtd">
<svg version="1.0" xmlns="http://www.w3.org/2000/svg"
 width="200.000000pt" height="200.000000pt" viewBox="0 0 200.000000 200.000000"
 preserveAspectRatio="xMidYMid meet">
<metadata>
Created by potrace 1.15, written by Peter Selinger 2001-2017
</metadata>
<g transform="translate(0.000000,200.000000) scale(0.100000,-0.100000)"
fill="#000000" stroke="none">
<path d="M794 1880 c-289 -75 -508 -295 -585 -585 -15 -59 -22 -123 -26 -242
l-6 -163 67 0 66 0 0 148 c0 174 14 243 71 359 78 157 236 294 403 350 71 24
97 27 211 28 110 0 141 -4 200 -23 198 -67 338 -190 425 -377 50 -106 61 -162
67 -337 l6 -148 58 0 59 0 0 133 c0 152 -11 231 -46 337 -83 249 -308 455
-568 520 -106 27 -301 27 -402 0z"/>
<path d="M1242 1467 c-69 -39 -76 -145 -11 -191 61 -42 160 -3 173 68 18 93
-81 168 -162 123z"/>
<path d="M824 1401 c-22 -10 -50 -34 -62 -52 l-22 -34 0 28 c0 24 -4 27 -35
27 l-35 0 0 -71 c0 -64 -2 -70 -17 -64 -143 59 -287 -23 -300 -171 -4 -51 -1
-67 24 -114 l28 -55 304 0 305 0 25 49 c88 171 -63 357 -244 301 -27 -8 -51
-15 -52 -15 -2 0 -3 8 -3 19 0 15 10 19 46 24 68 7 117 51 139 125 6 20 3 22
-27 22 -18 0 -51 -9 -74 -19z"/>
<path d="M1439 1293 c-31 -15 -83 -56 -124 -97 l-70 -71 3 36 c5 49 -29 88
-84 96 -33 4 -45 1 -72 -22 -27 -23 -32 -33 -32 -71 0 -62 32 -94 93 -94 23 0
49 6 57 13 10 9 9 5 -2 -13 -34 -55 -76 -136 -83 -157 l-6 -23 199 0 199 0 36
73 c62 127 81 235 53 302 -26 62 -80 71 -167 28z"/>
<path d="M175 818 c8 -37 135 -705 135 -712 0 -3 311 -6 690 -6 380 0 690 3
690 7 0 7 127 676 135 711 l5 22 -830 0 -830 0 5 -22z"/>
</g>
</svg>
