<?xml version="1.0" standalone="no"?>
<!DOCTYPE svg PUBLIC "-//W3C//DTD SVG 1.1//EN" "http://www.w3.org/Graphics/SVG/1.1/DTD/svg11.dtd" >
<svg xmlns="http://www.w3.org/2000/svg">
<metadata>Generated by IcoMoon</metadata>
<defs>
<font id="icomoon" horiz-adv-x="1024">
<font-face units-per-em="1024" ascent="960" descent="-64" />
<missing-glyph horiz-adv-x="1024" />
<glyph unicode="&#x20;" horiz-adv-x="512" d="" />
<glyph unicode="&#xe900;" glyph-name="aeropuerto" d="M883.712 765.44c-33.382-4.71-47.309-10.24-149.504-60.416-23.552-11.469-61.85-29.901-84.992-40.96-23.142-10.854-55.296-26.214-71.68-34.202s-51.61-24.986-78.438-37.683c-26.624-12.902-50.176-24.166-52.224-25.19-1.843-1.229-35.635-17.408-75.162-36.25-39.322-18.637-74.342-35.635-77.824-37.683-13.722-8.397-57.549-26.829-61.44-26.010-16.998 3.891-40.55 11.059-108.749 33.382l-77.824 25.6-22.118-10.24c-16.998-7.987-21.504-11.059-20.275-13.312 2.048-3.686 38.502-44.646 70.246-78.848 26.010-28.262 78.643-77.824 90.522-85.402 17.613-11.264 50.586-10.854 126.566 1.638 51.814 8.397 135.987 35.635 198.246 64.307 22.938 10.65 43.213 19.251 44.851 19.251 2.458 0 2.867-1.638 1.843-8.602-0.614-4.915-5.734-52.634-11.469-106.086-13.107-122.47-19.456-183.501-23.552-220.979-3.891-36.864-3.891-36.454 1.024-39.117 3.482-1.843 10.24 0.614 40.755 15.36 20.070 9.626 37.478 17.408 38.707 17.408 3.686 0 14.746 10.445 18.227 17.203 1.843 3.482 13.312 35.43 25.395 70.861s30.31 88.064 40.755 116.736c33.178 92.365 40.96 114.278 40.96 116.326 0 1.024 8.397 25.395 18.637 53.862 10.24 28.672 20.070 56.32 21.914 61.85l3.277 9.626 54.272 26.829c30.106 14.746 61.85 30.106 70.861 33.997 9.011 4.096 33.178 15.36 53.862 25.395 36.659 18.022 37.888 18.842 58.573 38.707 22.528 21.914 30.31 33.997 33.997 52.838 2.867 15.155 0.819 22.323-9.626 32.563-10.65 10.854-29.696 19.661-51.405 24.166-18.842 3.891-60.006 5.53-77.21 3.072zM280.576 730.829c-11.878-5.325-30.106-14.131-40.346-19.456-23.347-12.083-24.781-15.974-9.216-25.805 30.925-19.866 80.691-52.224 100.966-65.536 12.902-8.602 30.515-20.070 39.322-25.395l15.974-10.035 10.65 4.506c5.939 2.662 21.709 10.035 35.226 16.589 13.517 6.758 44.851 21.914 69.427 33.792 24.781 11.878 44.032 22.323 43.008 23.347-1.024 0.819-13.312 5.53-27.443 10.445-14.131 4.71-43.008 15.155-64.512 22.938-21.299 7.987-59.597 21.094-84.787 29.491-56.32 18.637-57.958 18.637-88.269 5.12z" />
<glyph unicode="&#xe901;" glyph-name="banco" horiz-adv-x="1258" d="M342.873 953.456l-7.956-6.544v-189.53c0.128-191.968 0.77-233.416 4.363-241.756 3.978-9.752-5.133-8.982 128.321-10.009 65.7-0.513 263.443-1.027 439.37-1.027l319.904-0.128 7.058 6.544 6.929 6.673v427.693l-14.885 14.629h-875.020l-8.084-6.544zM1113.183 906.49c1.283-12.319 6.288-26.434 12.96-36.571 10.522-15.783 29.257-30.284 46.067-35.673 2.823-0.898 9.752-2.31 15.398-3.208l10.266-1.412 0.385-97.652 0.257-97.652-7.314-0.898c-12.447-1.412-18.478-3.208-30.925-9.239-10.009-4.748-13.73-7.443-22.456-16.168-15.014-15.014-21.558-28.231-24.638-49.019l-1.412-10.266-323.625-0.385c-177.981-0.128-323.625 0-323.625 0.257s-0.898 5.518-1.925 11.677c-6.929 39.394-37.47 68.78-75.966 73.143l-8.084 0.898v195.689l8.213 0.898c16.040 1.668 33.235 9.111 47.35 20.66 13.73 11.164 27.204 36.828 28.744 54.536l0.77 8.982h648.662l0.898-8.597zM767.872 889.68c-32.593-8.341-62.877-35.16-81.355-71.988-6.288-12.704-13.73-36.571-16.040-52.098-3.080-19.248-2.053-61.466 1.668-77.762 13.987-59.797 48.762-100.86 95.727-112.794 46.58-11.806 97.139 18.735 123.188 74.554 12.319 26.434 15.142 41.704 15.27 81.355 0.128 40.806-2.951 57.488-15.27 83.922-17.708 37.855-47.222 64.93-80.714 74.041-11.806 3.208-31.439 3.465-42.474 0.77zM794.306 852.211h8.726l0.898-10.522c0.513-5.903 1.412-11.806 1.925-13.345 0.77-1.796 4.235-3.978 9.881-6.416 17.323-7.186 27.589-15.655 34.39-28.487 2.053-3.593 3.336-6.929 3.080-7.186-1.412-1.412-26.691-8.469-30.284-8.469-2.31 0-8.341 2.181-13.859 5.133-8.982 4.748-10.522 5.133-19.761 5.133-19.12 0-30.797-7.314-30.925-19.376 0-9.881 7.699-14.372 30.027-17.323 27.717-3.593 41.961-9.624 53.895-22.456 9.752-10.522 12.832-18.863 12.96-34.647 0-11.549-0.257-12.704-4.748-21.815-7.828-15.783-19.505-25.921-35.93-30.797-5.518-1.54-8.854-3.336-9.239-4.748-0.257-1.155-0.898-7.186-1.412-13.345l-0.898-11.292h-14.629c-16.682 0-15.142-1.283-16.553 14.115-1.027 10.009-3.080 13.602-8.597 14.757-2.31 0.513-8.084 2.951-12.96 5.389-12.832 6.801-28.359 24.638-26.177 30.284 0.898 2.31 18.863 8.341 27.974 9.496 5.133 0.642 6.673 0.257 10.394-2.566 7.186-5.518 12.96-7.314 23.868-7.314 12.447 0 21.558 2.566 26.819 7.699 5.518 5.389 6.159 9.367 2.951 16.040-3.721 7.828-9.881 10.522-29.001 12.832-27.974 3.465-37.726 7.186-50.302 19.633-30.027 29.514-16.553 77.634 25.279 90.21 6.929 2.053 8.597 4.748 9.624 15.783 0.513 4.876 1.412 9.881 2.053 11.164 1.283 2.181 6.673 3.721 10.009 2.823 1.027-0.128 5.646-0.385 10.522-0.385zM521.624 781.249c-16.168-5.389-26.562-15.783-32.722-32.593-2.438-6.673-2.823-9.881-2.31-19.376 0.385-9.624 1.155-12.832 4.62-19.89 4.748-9.496 14.629-19.505 23.868-23.868 29.257-14.244 64.032 3.336 72.245 36.315 1.796 7.571 1.925 10.137 0.642 17.837-3.080 17.58-15.527 33.62-30.797 39.523-8.982 3.465-27.846 4.62-35.545 2.053zM1023.102 781.121c-13.345-4.363-24.894-14.629-30.925-27.461-3.080-6.544-3.465-8.854-3.465-21.43 0-13.474 0.257-14.629 4.235-22.713 10.009-20.275 31.952-31.824 53.638-28.102 11.934 2.181 19.248 5.903 27.589 14.244 8.726 8.597 13.345 17.195 15.398 28.616 3.85 21.045-8.854 44.142-29.514 54.023-7.314 3.465-10.137 3.978-20.018 4.235-7.058 0.257-13.602-0.385-16.938-1.412zM346.081 410.787c-17.708-2.053-47.222-10.907-62.877-18.863-18.093-9.111-242.783-164.764-281.279-194.791-2.566-2.053-2.438-2.053 1.283-9.367 5.133-10.009 49.147-75.453 84.692-126.011 39.394-56.076 41.576-59.028 44.912-59.028 3.593 0 13.345 6.031 44.527 27.589 34.647 23.868 58.771 38.881 67.625 41.961 11.164 3.978 24.894 6.159 38.111 6.159 10.394 0 13.859-0.642 25.792-4.62 23.226-7.699 85.59-30.155 166.56-59.797 103.683-37.983 168.87-61.466 194.278-69.807 31.31-10.394 38.368-10.009 63.39 4.106 25.921 14.757 107.661 70.32 331.966 226.101 139.741 97.011 172.078 119.98 176.569 125.241 2.438 2.823 6.929 10.009 9.881 15.912 4.62 9.496 5.261 11.934 5.774 21.943 1.54 31.567-10.907 54.536-36.315 66.983-16.938 8.213-40.934 9.367-54.536 2.438-11.164-5.646-103.17-68.267-253.562-172.463l-62.749-43.501v-20.66c-0.128-23.226-1.668-31.054-8.982-46.324-12.96-26.691-40.549-49.917-65.444-55.178-5.903-1.283-16.553-1.925-31.439-1.925h-22.456l-116.772 58.771c-113.436 57.103-136.533 69.293-142.693 75.453-7.186 7.186 0.77 23.611 11.292 23.611 6.159 0 31.31-11.806 141.025-66.214 57.488-28.487 109.073-53.253 114.462-55.050 17.452-5.774 37.598-3.978 53.895 4.748 9.881 5.261 21.301 17.58 27.204 29.385l4.62 9.239v39.010l-4.748 9.496c-8.597 17.452-14.5 21.815-60.054 45.682-76.608 40.164-258.31 131.401-295.779 148.595-21.943 10.009-39.779 16.682-51.97 19.248-12.062 2.566-41.961 3.593-56.205 1.925z" />
<glyph unicode="&#xe902;" glyph-name="colonias" horiz-adv-x="1143" d="M541.74 959.3c-1.283-0.233-5.248-1.050-8.747-1.749-12.129-2.449-32.073-9.447-46.068-16.211-57.381-27.874-97.035-78.724-109.281-140.188-2.099-10.73-2.566-17.144-2.566-34.172 0-22.043 1.050-31.84 5.831-51.667 10.030-41.17 42.803-124.093 86.772-218.912 14.695-31.84 55.049-113.013 67.528-136.222 17.378-32.073 23.326-39.187 33.822-40.237 16.211-1.516 21.46 5.482 57.381 76.042 76.858 151.501 127.125 272.795 139.721 337.174 4.549 23.209 4.199 46.418-1.050 71.493-10.73 51.55-44.552 99.251-90.387 127.359-17.378 10.73-40.47 20.293-57.848 23.909-13.062 2.799-66.012 5.132-75.109 3.382zM594.806 862.498c48.751-10.030 85.489-62.863 78.258-112.43-6.298-42.803-37.554-76.742-80.124-87.005-12.013-2.916-32.306-2.682-44.669 0.583-39.187 10.263-68.344 40.587-76.742 80.007-2.449 11.43-1.516 35.572 1.866 46.651 8.747 29.274 28.924 53.183 55.165 65.195 20.527 9.564 42.453 11.779 66.245 6.998zM21.576 783.191c-6.298-4.199-12.713-10.38-17.611-16.911l-3.965-5.482v-796.341l5.015-8.047c5.248-8.747 12.363-14.928 19.244-16.911 8.164-2.566 157.099-3.382 625.713-3.382 426.511-0.117 464.299 0 467.681 1.749 8.281 4.315 15.278 10.497 20.177 18.077l5.132 7.931v796.924l-4.082 5.598c-4.665 6.415-12.246 13.529-18.194 17.261l-4.199 2.566-296.004-0.583-0.816-23.326c-0.467-13.529-1.749-28.341-3.032-35.338-2.099-12.013-2.099-12.013 0.233-13.412 2.099-1.166 98.901-2.449 231.275-3.032l20.060-0.117 0.35-25.308 0.35-25.425-199.435-200.018-53.299 53.299c-29.274 29.274-53.533 53.066-53.766 52.833-0.233-0.35-5.015-11.196-10.73-24.259l-10.263-23.792 158.382-158.382-127.708-127.708c-70.21-70.21-128.175-127.708-128.875-127.708-1.516 0-226.843 225.327-226.843 226.843 0 0.583 11.43 12.596 25.308 26.475l25.425 25.425-11.663 23.326c-6.415 12.829-11.896 23.326-12.246 23.326s-33.706-33.006-74.059-73.476l-73.476-73.476-34.172 34.172c-18.894 18.661-53.066 53.416-76.159 76.975-38.254 39.187-41.753 43.153-40.587 45.369 0.7 1.283 46.885 48.168 102.633 104.149s101.35 102.4 101.35 103.216c0 1.633-15.162 50.5-15.862 51.317-0.35 0.233-51.433-50.384-113.596-112.547l-113.13-113.13-32.19 32.656 0.933 205.5 49.684 0.7c27.408 0.467 84.906 0.816 127.825 0.816 71.843 0 77.908 0.117 77.208 1.866-2.682 6.881-5.598 32.306-6.065 51.2l-0.35 20.993-296.937 0.583-4.665-3.032zM1069.369 369.626c0-59.597-0.233-108.231-0.816-108.231-0.467 0-37.321 36.505-81.873 81.057l-81.057 81.057 162.114 162.114 0.7-53.882c0.35-29.74 0.816-102.633 0.933-162.114zM169.695 339.302l91.67-91.204-93.070-93.070c-51.2-51.2-93.536-93.070-94.119-93.070-1.166 0 0 357 1.166 364.231 0.467 2.333 1.166 4.315 1.633 4.315s42.22-41.053 92.72-91.204zM1057.589 200.397l11.896-12.129v-175.293l-162.347 0.117c-89.338 0-166.079 0.35-170.395 0.933-7.231 0.816-8.281 1.166-11.080 4.898-1.633 2.216-12.596 13.646-24.375 25.542s-21.343 22.159-21.343 22.859c0 0.7 57.265 58.314 127.125 128.058l127.125 126.892 55.749-54.815c30.557-30.207 60.997-60.297 67.645-67.062zM521.33 153.513l140.538-140.538h-564.483l140.538 140.538c77.325 77.325 141.004 140.538 141.704 140.538s64.379-63.213 141.704-140.538zM927.198 262.444c-2.216-1.4-12.246-10.73-22.276-20.76-21.693-21.81-23.909-25.775-19.827-34.289 1.633-3.382 9.33-11.779 21.693-24.026 20.527-20.177 26.241-24.142 32.19-22.043 4.549 1.633 18.194 13.529 32.656 28.574 17.144 17.961 19.010 22.509 12.829 31.956-4.199 6.531-36.738 38.604-41.753 41.17-5.132 2.566-10.613 2.333-15.512-0.583zM376.711 237.252c-4.782-2.449-43.036-39.887-46.535-45.835-1.283-2.216-2.449-5.248-2.449-6.648 0-7.581 45.485-52.833 52.949-52.833 1.516 0 5.831 2.216 9.564 5.015 9.33 6.881 33.356 31.256 39.887 40.354l5.248 7.348-2.099 3.965c-4.898 9.097-32.306 37.088-45.952 46.885-5.948 4.315-5.365 4.199-10.613 1.749zM862.703 618.278c-7.464-4.665-34.639-31.256-40.12-39.304-5.248-7.581-5.715-13.179-1.4-19.244 7.697-11.080 35.105-37.904 43.386-42.569 3.965-2.216 9.097-1.749 13.879 1.166 11.43 6.881 41.636 38.371 44.202 45.952 2.449 7.581-0.7 12.713-20.41 32.539-17.378 17.494-26.825 24.959-31.606 24.959-1.4 0-4.898-1.516-7.931-3.499z" />
<glyph unicode="&#xe903;" glyph-name="ganado" horiz-adv-x="1096" d="M258.348 957.652c-57.684-5.59-121.069-23.923-160.755-46.728-17.439-9.949-30.295-19.899-45.722-35.326-19.452-19.34-31.637-36.667-40.915-57.796-16.098-37.114-14.086-72.44 6.037-103.294 8.049-12.185 25.712-29.624 39.462-38.791 50.417-33.314 114.921-43.375 185.46-28.73 6.037 1.23 12.297 2.236 13.974 2.236h3.018l-3.018-24.594c-14.309-116.374-8.272-205.359 19.787-292.108 11.514-35.438 21.911-60.255 50.753-121.516 22.246-47.064 31.301-67.857 31.301-71.546 0-1.565-1.677-6.148-3.801-10.061-5.701-10.732-7.825-19.116-6.931-27.277 1.9-16.433 14.645-68.975 23.476-96.028 5.59-16.992 10.955-26.83 19.675-35.438 14.421-14.421 30.519-20.234 65.956-24.035 9.502-1.006 23.923-3.018 31.86-4.472 23.364-4.248 33.984-5.142 60.814-5.142 24.482 0 32.643 0.671 60.479 5.031 5.813 0.894 16.657 2.124 24.035 2.795s18.781 1.789 25.265 2.348c23.029 2.236 33.425 6.372 45.163 18.334 9.838 10.061 14.868 18.669 20.122 34.431 8.831 26.494 20.793 74.788 24.147 96.699 1.789 11.626 0.559 17.775-6.26 30.742l-4.807 9.502 2.571 7.714c3.018 9.055 8.608 21.352 31.86 70.875 20.458 43.598 27.053 58.578 36.332 82.166 20.905 53.212 33.984 107.878 37.562 156.171 1.453 19.452 0.671 101.059-1.23 126.659-1.565 21.799-4.472 49.747-6.148 60.367-0.783 4.919-1.23 9.167-1.006 9.39s8.049-1.23 17.439-3.13c26.718-5.366 35.326-6.26 61.82-6.148 31.301 0 47.064 2.236 71.546 10.173 30.519 9.838 56.342 25.041 75.123 44.045 11.291 11.514 16.545 18.893 22.805 31.748 6.26 12.968 8.608 21.687 9.502 35.773 3.13 45.163-26.83 98.823-74.9 134.037-40.58 29.736-97.593 49.635-168.133 58.914-16.321 2.124-53.995 4.248-52.765 3.018 0.335-0.335 9.39-4.248 20.122-8.72 24.37-9.949 42.145-19.004 57.125-28.954 28.954-19.116 49.076-42.48 58.019-67.074 3.242-8.72 3.466-10.508 3.13-20.234-0.335-9.055-0.894-11.738-3.689-17.328-9.055-18.669-30.407-30.295-65.956-35.773-28.283-4.36-116.15-4.472-204.576-0.335-35.326 1.565-195.745 1.565-230.847 0-94.463-4.472-178.306-4.024-207.93 1.006-34.767 5.813-54.107 16.769-62.938 35.326-8.496 17.998-4.024 38.679 13.75 63.832 14.197 20.234 40.245 40.915 70.204 56.007 5.142 2.571 18.445 8.496 29.624 13.079 11.179 4.695 20.569 8.72 20.793 8.943 0.783 0.783-27.948 0.224-37.785-0.783zM339.619 528.489c11.626-6.372 14.756-8.496 14.197-9.949-8.608-22.134-9.055-39.909-1.565-51.647 4.807-7.602 13.638-15.203 22.023-19.228 6.596-3.13 7.602-3.242 17.886-2.683 8.943 0.447 12.185 1.118 18.669 3.913 9.838 4.36 11.85 4.36 16.769 0.112 5.925-5.254 5.254-7.155-3.577-9.949-11.403-3.466-33.872-7.825-40.803-7.825-7.714 0-17.663 2.571-23.811 6.148-6.037 3.577-14.086 12.185-17.328 18.445-4.695 9.279-10.844 33.314-16.21 63.944-3.13 17.663-3.13 17.998-1.9 17.328 0.447-0.224 7.49-4.136 15.651-8.608zM772.472 535.979c0-7.378-9.726-53.436-14.533-68.975-5.478-17.998-15.539-28.73-31.19-33.649-9.279-2.795-17.663-2.683-34.096 0.671-19.787 4.024-28.618 6.931-28.618 9.39 0 2.683 7.155 9.055 10.173 9.055 1.23 0 5.813-1.565 10.285-3.577 7.49-3.354 8.943-3.577 20.346-3.689 10.732 0 12.968 0.335 17.775 2.683 7.937 3.913 19.004 14.756 22.693 22.246 2.795 5.813 3.13 7.49 3.018 18.11 0 9.949-0.559 13.303-3.466 21.911l-3.354 10.173 9.614 5.59c5.254 3.13 11.85 6.931 14.645 8.496 5.813 3.354 6.707 3.577 6.707 1.565zM439.783 107.263c0.224-0.447-0.224-3.577-1.118-6.931-2.012-7.937-2.012-23.811 0.112-30.966 1.565-5.254 7.043-14.086 24.147-38.679 5.813-8.496 5.925-8.831 3.913-10.397-2.907-2.012-17.216-2.012-24.817 0-29.848 7.937-50.865 46.505-37.338 68.416 4.807 7.602 15.315 14.533 27.165 17.775 7.043 1.9 7.266 1.9 7.937 0.783zM666.83 105.139c11.85-3.689 21.24-10.508 25.265-18.334 9.949-19.563-4.583-50.865-29.401-63.050-7.714-3.689-9.838-4.248-19.004-4.695-9.838-0.559-16.545 0.559-16.545 2.795 0 0.559 5.254 8.496 11.738 17.663 17.775 25.488 18.893 27.724 19.34 41.81 0.335 7.714-0.112 14.086-1.23 18.669-0.894 3.801-1.341 7.155-1.118 7.49 0.559 0.559 3.577-0.112 10.955-2.348z" />
<glyph unicode="&#xe904;" glyph-name="gasolina" d="M791.040 819.2c-67.584-14.336-134.656-30.208-148.992-35.328-14.848-4.608-55.296-29.184-91.648-54.272-44.032-31.744-69.12-46.080-78.848-46.080-8.192 0-24.064-7.168-36.864-16.896-18.432-13.824-30.208-17.92-65.536-23.040-76.288-10.752-107.52-30.72-172.032-111.104-41.984-52.736-45.056-61.952-28.16-94.72 5.632-11.264 10.24-23.552 10.24-28.16 0-4.096-25.6-71.168-56.32-148.48-59.392-148.992-65.024-171.008-45.056-183.808 26.112-15.872 156.672-29.696 221.696-23.040 57.344 5.632 94.208 20.48 125.44 49.664 20.992 19.968 31.744 38.4 66.56 112.128 35.84 75.264 41.472 91.648 40.448 110.080-1.536 15.872 2.048 29.696 11.776 50.176 18.944 37.888 23.040 76.288 12.288 117.248-10.24 40.448-10.24 68.608 0 88.576 4.608 8.704 6.656 20.48 5.12 26.112-3.584 14.336 73.728 98.816 108.032 117.248 16.896 9.216 59.904 20.992 139.776 37.376 63.488 13.312 118.272 27.136 122.368 30.72 9.216 8.704 3.072 41.984-8.704 47.616-5.632 2.56-53.248-5.12-131.584-22.016zM331.776 346.624c11.776-3.584 11.776-3.584-3.584-12.8-18.432-10.752-31.232-32.768-31.232-53.248 0-18.432 14.336-101.888 20.992-122.88 3.072-9.216 8.704-16.896 13.312-16.896 6.144 0 7.168 7.168 4.096 47.616-1.536 25.6-4.096 56.32-5.632 68.096-2.048 15.872 0 24.064 8.704 34.816 11.776 15.36 43.52 31.232 72.704 36.352 15.36 3.072 18.944 1.536 30.72-12.8 7.68-8.704 13.824-19.456 13.824-23.552 0-12.288-40.96-105.472-53.76-122.368-27.136-36.352-94.72-57.344-169.472-52.224-24.064 1.024-44.544 3.584-46.080 4.608-2.56 2.56 49.664 118.272 84.48 187.904 22.528 44.032 26.624 46.592 60.928 37.376z" />
<glyph unicode="&#xe905;" glyph-name="hospital" d="M207.36 508.928v-403.968h-128v-115.2h860.16v115.2h-128v807.68h-604.16v-403.712zM743.424 838.144c3.584-3.584 4.096-38.4 4.096-345.6 0-230.656-0.768-343.552-2.56-346.88-2.56-4.864-7.936-4.864-235.52-4.864s-232.96 0-235.52 4.864c-1.792 3.328-2.56 116.224-2.56 346.88 0 307.2 0.512 342.016 4.096 345.6s28.16 4.096 233.984 4.096c205.824 0 230.4-0.512 233.984-4.096zM455.68 773.12v-40.96h-81.92v-104.96h81.92v-81.92h107.52v81.92h81.92v104.96h-81.92v81.92h-107.52v-40.96zM311.040 470.272c-0.768-1.792-1.024-27.904-0.768-58.112l0.768-55.040 49.408-0.768 49.152-0.512-0.512 58.112-0.768 58.368-48.128 0.768c-37.376 0.512-48.384 0-49.152-2.816zM461.824 470.272c-0.512-1.792-0.768-27.904-0.512-58.112l0.768-55.040 49.408-0.768 49.152-0.512v117.76h-48.64c-37.12 0-49.152-0.768-50.176-3.328zM611.072 472.064c-1.024-1.024-1.792-27.648-1.792-59.136v-57.088l49.408 0.512 49.152 0.768v115.2l-47.616 0.768c-26.112 0.256-48.128-0.256-49.152-1.024zM310.784 293.632c-0.512-1.792-0.768-27.904-0.512-58.112l0.768-55.040 49.408-0.768 49.152-0.512v117.76h-48.64c-37.12 0-49.152-0.768-50.176-3.328zM459.52 293.632c-0.768-1.792-1.024-27.904-0.768-58.112l0.768-55.040h99.84v115.2l-49.408 0.768c-38.4 0.512-49.664 0-50.432-2.816zM609.28 238.080v-58.88l49.408 0.512 49.152 0.768v115.2l-49.152 0.768-49.408 0.512v-58.88z" />
<glyph unicode="&#xe906;" glyph-name="hotel" d="M412.058 957.338c-10.65-3.277-26.214-18.432-30.515-29.696-3.277-8.806-3.686-17.613-3.686-102.81 0-90.726 0.205-93.389 4.301-102.605 5.53-11.674 13.312-19.251 26.419-25.6l10.24-4.915h186.368l10.24 4.915c13.107 6.349 20.89 13.926 26.419 25.6 4.096 9.216 4.301 11.878 4.301 102.605 0 73.728-0.614 94.822-2.867 101.171-3.891 11.059-15.77 23.552-27.853 29.082l-10.24 4.915-93.184-0.205c-59.802-0.205-95.642-1.024-99.942-2.458zM463.667 911.667c2.662-2.662 3.277-8.602 3.277-32.768v-29.491h90.112v29.491c0 36.454-0.205 36.045 22.528 36.045 14.336 0 16.589-0.41 19.251-4.506 2.867-3.891 3.277-15.565 3.277-84.582s-0.41-80.691-3.277-84.582c-2.662-4.096-4.915-4.506-19.251-4.506-22.733 0-22.528-0.41-22.528 36.045v29.491h-90.112v-29.491c0-36.454 0.205-36.045-22.528-36.045-14.336 0-16.589 0.41-19.251 4.506-2.867 3.891-3.277 15.565-3.277 84.582s0.41 80.691 3.277 84.582c2.662 4.096 4.915 4.506 19.251 4.506 11.878 0 16.998-0.819 19.251-3.277zM186.368 827.494c-2.867-0.614-8.192-3.277-11.878-5.939-13.722-10.65-12.698 26.419-12.698-439.706v-422.707l4.506-6.758c2.662-3.686 7.373-8.806 10.445-11.059 5.734-4.301 7.782-4.301 117.35-4.915l111.411-0.41v83.968c0 91.955-0.205 90.726 12.288 106.496 3.686 4.506 11.264 10.445 18.022 13.722l11.674 5.734h129.024l11.674-5.734c6.758-3.277 14.336-9.216 18.022-13.722 12.493-15.77 12.288-14.541 12.288-106.496v-83.968h220.57l6.963 4.71c3.686 2.458 9.011 7.782 11.469 11.469l4.71 6.963v422.707c0 468.378 1.229 429.056-13.722 440.32l-7.373 5.734-161.178 1.229v-46.899c0-38.707-0.614-49.152-3.686-61.030-7.578-28.877-28.467-50.586-56.934-59.187-14.95-4.506-199.68-4.506-214.63 0-28.467 8.602-49.152 30.106-56.73 58.573-3.277 12.493-3.891 22.323-3.891 61.645v46.694l-76.186-0.205c-41.984-0.205-78.643-0.819-81.51-1.229zM311.296 757.248c6.554-6.554 8.192-13.107 8.192-33.587 0-35.43-3.686-39.117-40.55-39.117h-25.395l-5.939 6.758c-5.939 6.554-5.939 6.758-5.939 31.949 0 24.371 0.205 25.805 5.325 31.744l5.325 6.349h27.443c24.986 0 27.853-0.41 31.539-4.096zM777.011 754.995c5.12-5.939 5.325-7.373 5.325-31.744 0-25.19 0-25.395-5.939-31.949l-5.939-6.758h-25.395c-36.864 0-40.55 3.686-40.55 39.117 0 20.48 1.638 27.034 8.192 33.587 3.686 3.686 6.554 4.096 31.539 4.096h27.443l5.325-6.349zM309.862 603.443c7.782-5.939 10.24-16.384 9.216-40.55-0.614-20.89-0.614-21.094-7.373-27.034-6.554-5.734-6.963-5.939-30.31-5.939-24.986 0-33.382 2.253-37.683 10.035-2.662 5.12-2.662 52.634 0 57.549 4.301 7.987 12.083 10.035 37.069 10.24 21.094 0 24.371-0.41 29.082-4.301zM461.414 605.491c10.24-5.325 11.674-9.421 11.674-36.25 0-13.926-1.024-27.034-2.048-29.286-4.301-7.782-12.698-10.035-37.683-10.035-23.347 0-23.757 0.205-30.31 5.939l-6.758 5.939v54.067l6.758 5.939c6.554 5.734 6.963 5.939 30.31 5.939 13.312 0 25.6-1.024 28.058-2.253zM620.954 601.805l6.758-5.939v-54.067l-6.758-5.939c-6.554-5.734-6.963-5.939-30.31-5.939-24.986 0-33.382 2.253-37.683 10.035-1.024 2.253-2.048 15.36-2.048 29.286 0.205 36.045 2.458 38.298 39.322 38.502 23.757 0 24.166 0 30.72-5.939zM772.096 604.672c3.277-1.638 6.963-4.915 8.192-6.963 1.024-2.253 2.048-15.77 2.048-29.901v-26.010l-6.349-5.939c-6.349-5.939-6.554-5.939-31.744-5.939s-25.395 0-31.949 5.939-6.758 6.144-7.373 27.034c-1.024 24.166 1.434 34.611 9.216 40.55 4.506 3.686 8.192 4.301 28.672 4.301 16.794 0 24.986-0.819 29.286-3.072zM463.053 450.048c8.602-4.71 10.035-10.035 10.035-36.659 0-24.986-0.205-25.805-5.53-31.334-5.53-5.734-5.53-5.734-31.949-5.734-14.95 0-28.058 1.024-30.515 2.253-6.758 3.686-9.83 14.336-9.83 35.635 0 21.914 2.867 31.334 10.445 35.226 2.662 1.434 13.312 2.867 23.347 3.277 21.299 0.614 28.877 0 33.997-2.662zM311.091 447.795c6.963-6.554 8.397-12.493 8.397-33.792 0-21.094-3.072-31.744-9.83-35.43-2.458-1.229-15.77-2.253-30.72-2.253h-26.624l-5.325 6.349c-5.12 5.939-5.325 7.373-5.325 31.539s0.205 25.6 5.325 31.539l5.325 6.349h27.034c24.576 0 27.443-0.41 31.744-4.301zM619.52 448.819c6.963-4.506 9.216-13.107 9.216-35.021 0-20.89-3.072-31.539-9.83-35.226-2.458-1.229-15.77-2.253-30.72-2.253h-26.624l-5.325 6.349c-5.12 5.939-5.325 7.373-5.325 31.949 0 25.395 0 25.6 5.939 31.539s6.144 5.939 31.949 5.939c19.866 0 26.829-0.819 30.72-3.277zM777.011 445.747c5.12-5.939 5.325-7.373 5.325-31.539s-0.205-25.6-5.325-31.539l-5.325-6.349h-26.624c-14.95 0-28.262 1.024-30.72 2.253-6.758 3.686-9.83 14.336-9.83 35.43 0 21.299 1.434 27.238 8.397 33.792 4.301 3.891 7.168 4.301 31.744 4.301h27.034l5.325-6.349zM308.429 294.605c9.216-5.734 11.674-14.746 10.65-40.55-0.819-21.299-0.819-21.709-7.373-27.443s-7.168-5.939-30.31-5.939c-24.986 0-33.382 2.253-37.683 10.035-2.662 5.325-2.662 52.634 0.205 57.754 3.686 7.168 13.517 9.83 36.659 10.035 17.613 0 22.733-0.614 27.853-3.891zM460.595 296.243c10.24-3.686 12.493-10.445 12.493-37.683 0-13.107-1.024-25.6-2.048-27.853-4.301-7.782-12.698-10.035-37.683-10.035-23.347 0-23.757 0.205-30.31 5.939l-6.758 5.939v26.624c0 23.757 0.41 27.034 4.096 31.13 2.253 2.458 5.939 5.325 8.192 6.349 6.144 2.458 44.442 2.253 52.019-0.41zM621.978 291.738c5.734-5.53 5.734-5.939 5.734-32.358v-26.829l-6.758-5.939c-6.554-5.734-6.963-5.939-30.31-5.939-24.986 0-33.382 2.253-37.683 10.035-2.867 5.734-2.662 49.971 0.41 56.73 4.096 9.011 12.083 11.059 38.912 10.65 23.347-0.614 24.371-0.819 29.696-6.349zM771.072 295.629c3.686-1.638 7.782-4.71 9.011-6.963 2.867-5.325 2.867-52.634 0.205-57.958-4.301-7.782-12.698-10.035-37.683-10.035-23.347 0-23.757 0.205-30.31 5.939l-6.758 5.939-0.614 23.347c-0.614 25.805 2.048 35.021 11.878 39.936 7.168 3.686 45.261 3.482 54.272-0.205zM311.706 137.728c6.349-6.349 7.782-12.698 7.782-35.635 0-32.154-7.168-38.093-44.032-36.659-31.539 1.229-33.792 3.891-33.792 40.755 0 24.576 0 24.781 5.939 30.72l5.939 5.939h26.624c25.6 0 26.624-0.205 31.539-5.12zM777.011 136.499c5.12-5.939 5.325-7.373 5.325-30.515 0-36.659-2.253-39.322-33.792-40.55-36.864-1.434-44.032 4.506-44.032 36.659 0 22.938 1.434 29.286 7.782 35.635 4.915 4.915 5.939 5.12 32.154 5.12h27.238l5.325-6.349z" />
<glyph unicode="&#xe907;" glyph-name="people" d="M230.4 878c-58.6-10.6-105.8-54.2-120.6-111.8-8-30.8-4.2-72.2 9.2-101.8 34.4-75.2 129-108.4 202.8-71l14.8 7.6 4.4 17.2c8.4 33.2 25.6 63 50.8 87.6l15.2 15-0.6 15.6c-1.6 41.4-21.8 82.2-54 108.6-14.8 12.4-39.6 25.2-57.4 30-14.8 3.8-50.2 5.4-64.6 3zM742.4 878c-35-6.4-70.6-27.2-91.4-53.6-18.8-23.8-32-56.8-33.2-83.2l-0.6-11.2 12-8.6c33.4-24.4 60.8-66 69.8-105.6 5.8-26.2 4.2-24.2 23-30.6 32-10.8 73-9.2 104.6 4.2 39.6 16.8 71.8 51.6 84.4 91.2 19.4 60.8 1 125.2-46.6 164.4-14.8 12.4-39.6 25.2-57.4 30-14.8 3.8-50.2 5.4-64.6 3zM482 719.8c-75.6-19.4-124.6-94.6-111.2-171 11.8-67.8 63.2-116.6 131.6-125 70.8-8.6 138.6 35 160.8 103.2 6.4 19.6 8.6 53 5 74.2-10.2 58.4-57.8 107.6-116 120-19.2 4-52 3.4-70.2-1.4zM171.4 567.8c-69.6-7.4-131.4-53.6-157.6-118-12.8-31.4-12.4-28-13.2-135.2-0.4-54.2-0.4-98.6 0.2-98.6 0.4 0 15.2-4 32.6-9 56.4-16 125-29 168.6-32 10.4-0.8 20.6-1.8 22.6-2.4 3-0.8 3.4 1.2 3.4 23.8 0.2 33.8 3 60.8 9 83.2 18.6 69.6 71.6 127.8 140 153.4 7.8 3 14.4 5.6 14.8 6s-4.8 6.8-11.4 14.2c-22.6 25.2-40.6 65-43.8 97.8-1.4 14.6-2 16-6.6 17.2-7 2-139.6 1.6-158.6-0.4zM704 562.6c0-12.8-7.2-42.8-14-59-7.6-18.4-18.8-36.2-32.4-52.2-5.6-6.4-9.8-12-9.4-12.2 0.4-0.4 8.2-3.6 17.2-7.2 59.6-23.4 107.4-72.2 130-132.2 11-29.2 12.8-41 14-86.4l1-41.8 21.4 1.4c64.2 4 128.2 18 175.8 38.4l16.6 7.2-0.8 97.2c-0.8 105.8-0.4 102.6-13.2 134-21.8 53.8-70.4 96.8-126.4 112.2-23 6.2-47.8 8-116.2 8h-63.6v-7.4zM416.2 409.8c-57.8-12.2-107.4-50.4-133.2-102.8-18.4-37.6-21-57-21-164.4v-80.4l19.6-6c56.6-17.4 106.8-27.8 170.4-35.6 34.6-4 123.8-4.6 155-0.8 64.6 7.6 116.8 20.4 155.6 38l13.6 6.2-0.8 95.4c-0.8 102.6-0.6 100.8-12 131.8-17.6 47.8-64.6 93.8-113.2 111-31 11-41 11.8-132 11.6-75 0-85-0.4-102-4z" />
<glyph unicode="&#xe908;" glyph-name="presa" d="M92.16 551.936c0-189.952 2.048-329.216 4.608-326.656 2.56 3.072 8.192 17.92 13.312 33.28 10.752 33.792 49.152 112.128 69.632 141.824l14.848 21.504v374.272h128v87.040h-230.4v-331.264zM798.72 839.68v-43.52h128v-378.88h-87.040v-225.28h184.32v691.2h-225.28v-43.52zM235.52 614.4c0-71.68 1.536-130.56 4.096-130.56 2.048 0 12.288 8.192 23.040 17.92l18.944 17.92v184.32h558.080v-235.52h40.96v276.48h-645.12v-130.56zM332.8 599.040v-43.52h71.68v87.040h-71.68v-43.52zM460.8 599.040v-43.52h71.68v87.040h-71.68v-43.52zM588.8 599.040v-43.52h71.68v87.040h-71.68v-43.52zM716.8 599.040v-43.52h71.68v87.040h-71.68v-43.52zM314.368 492.032c-68.096-70.656-125.952-168.96-160.768-273.92l-19.968-59.392-28.672-14.848c-54.272-27.648-108.032-88.576-103.936-116.736 1.536-11.776 2.048-11.776 90.112-13.312l88.064-1.024 5.632 13.824c17.408 43.52 42.496 89.088 52.736 97.28 9.216 7.68 12.288 16.384 15.36 47.104 7.168 81.408 33.792 181.76 62.464 236.032 9.728 18.432 31.232 51.712 48.128 74.24s30.72 42.496 30.72 45.056c0 2.048-9.728 3.584-21.504 3.584-20.48 0-24.576-2.56-58.368-37.888zM465.92 510.976c-18.432-23.040-56.832-95.744-74.24-141.824-18.944-50.688-33.28-111.104-38.4-164.352-4.096-45.056-5.632-50.176-22.528-69.632-21.504-25.6-45.568-83.456-43.008-104.96 1.024-11.776 4.096-14.848 13.824-14.848 13.312 0 13.312 0 35.328 49.152 8.192 18.944 23.040 43.008 32.768 53.76 17.408 18.944 17.92 22.016 20.992 68.608 6.656 110.592 55.296 237.056 120.32 311.808 11.776 14.336 21.504 26.624 21.504 28.16s-11.264 3.072-25.088 3.072c-23.040 0-26.624-1.536-41.472-18.944zM589.824 500.736c-56.32-82.944-97.792-200.192-106.496-300.544-3.072-36.864-5.632-43.52-23.040-66.56-25.088-32.768-49.664-97.792-41.984-110.080 9.216-14.336 26.112-13.312 32.768 3.072 20.48 48.128 30.72 68.096 46.592 89.088 15.872 20.48 18.432 28.16 21.504 64 10.752 119.808 50.688 227.84 114.176 309.76 14.848 19.456 27.136 36.352 27.136 37.888s-11.264 2.56-25.6 2.56c-25.088 0-25.6 0-45.056-29.184zM718.848 485.888c-53.76-80.384-88.576-179.712-99.84-283.136-5.12-47.616-7.68-56.32-19.968-69.632-26.624-28.672-55.808-101.376-45.568-113.664 8.192-9.216 149.504-9.728 156.672-0.512 3.072 3.584 6.656 47.104 8.192 96.256 5.12 135.168 29.696 281.088 62.976 374.272 6.656 18.944 12.288 35.328 12.288 37.376 0 1.536-10.24 3.072-22.528 3.072h-23.040l-29.184-44.032z" />
<glyph unicode="&#xe909;" glyph-name="supermercado" d="M406.528 898.56c-147.968-38.4-260.096-151.040-299.52-299.52-7.68-30.208-11.264-62.976-13.312-123.904l-3.072-83.456h68.096v75.776c0 89.088 7.168 124.416 36.352 183.808 39.936 80.384 120.832 150.528 206.336 179.2 36.352 12.288 49.664 13.824 108.032 14.336 56.32 0 72.192-2.048 102.4-11.776 101.376-34.304 173.056-97.28 217.6-193.024 25.6-54.272 31.232-82.944 34.304-172.544l3.072-75.776h59.904v68.096c0 77.824-5.632 118.272-23.552 172.544-42.496 127.488-157.696 232.96-290.816 266.24-54.272 13.824-154.112 13.824-205.824 0zM635.904 687.104c-35.328-19.968-38.912-74.24-5.632-97.792 31.232-21.504 81.92-1.536 88.576 34.816 9.216 47.616-41.472 86.016-82.944 62.976zM421.888 653.312c-11.264-5.12-25.6-17.408-31.744-26.624l-11.264-17.408v14.336c0 12.288-2.048 13.824-17.92 13.824h-17.92v-36.352c0-32.768-1.024-35.84-8.704-32.768-73.216 30.208-146.944-11.776-153.6-87.552-2.048-26.112-0.512-34.304 12.288-58.368l14.336-28.16h311.808l12.8 25.088c45.056 87.552-32.256 182.784-124.928 154.112-13.824-4.096-26.112-7.68-26.624-7.68-1.024 0-1.536 4.096-1.536 9.728 0 7.68 5.12 9.728 23.552 12.288 34.816 3.584 59.904 26.112 71.168 64 3.072 10.24 1.536 11.264-13.824 11.264-9.216 0-26.112-4.608-37.888-9.728zM736.768 598.016c-15.872-7.68-42.496-28.672-63.488-49.664l-35.84-36.352 1.536 18.432c2.56 25.088-14.848 45.056-43.008 49.152-16.896 2.048-23.040 0.512-36.864-11.264s-16.384-16.896-16.384-36.352c0-31.744 16.384-48.128 47.616-48.128 11.776 0 25.088 3.072 29.184 6.656 5.12 4.608 4.608 2.56-1.024-6.656-17.408-28.16-38.912-69.632-42.496-80.384l-3.072-11.776h203.776l18.432 37.376c31.744 65.024 41.472 120.32 27.136 154.624-13.312 31.744-40.96 36.352-85.504 14.336zM89.6 354.816c4.096-18.944 69.12-360.96 69.12-364.544 0-1.536 159.232-3.072 353.28-3.072 194.56 0 353.28 1.536 353.28 3.584 0 3.584 65.024 346.112 69.12 364.032l2.56 11.264h-849.92l2.56-11.264z" />
<glyph unicode="&#xe90a;" glyph-name="bar-chart" horiz-adv-x="1170" d="M365.714 438.857v-292.571h-146.286v292.571h146.286zM585.143 731.428v-585.143h-146.286v585.143h146.286zM1170.286 73.143v-73.143h-1170.286v877.714h73.143v-804.571h1097.143zM804.571 585.143v-438.857h-146.286v438.857h146.286zM1024 804.571v-658.286h-146.286v658.286h146.286z" />
<glyph unicode="&#xe90b;" glyph-name="pie-chart" horiz-adv-x="987" d="M438.857 442.286l312-312c-79.429-80.571-190.286-130.286-312-130.286-242.286 0-438.857 196.571-438.857 438.857s196.571 438.857 438.857 438.857v-435.429zM545.714 438.857h441.714c0-121.714-49.714-232.571-130.286-312zM950.857 512h-438.857v438.857c242.286 0 438.857-196.571 438.857-438.857z" />
<glyph unicode="&#xe90c;" glyph-name="circle-right" horiz-adv-x="878" d="M409.714 153.714l259.429 259.429c14.286 14.286 14.286 37.143 0 51.429l-259.429 259.429c-14.286 14.286-37.143 14.286-51.429 0l-58.286-58.286c-14.286-14.286-14.286-37.143 0-51.429l175.429-175.429-175.429-175.429c-14.286-14.286-14.286-37.143 0-51.429l58.286-58.286c14.286-14.286 37.143-14.286 51.429 0zM877.714 438.857c0-242.286-196.571-438.857-438.857-438.857s-438.857 196.571-438.857 438.857 196.571 438.857 438.857 438.857 438.857-196.571 438.857-438.857z" />
<glyph unicode="&#xe90d;" glyph-name="circle-left" horiz-adv-x="878" d="M519.429 153.714l58.286 58.286c14.286 14.286 14.286 37.143 0 51.429l-175.429 175.429 175.429 175.429c14.286 14.286 14.286 37.143 0 51.429l-58.286 58.286c-14.286 14.286-37.143 14.286-51.429 0l-259.429-259.429c-14.286-14.286-14.286-37.143 0-51.429l259.429-259.429c14.286-14.286 37.143-14.286 51.429 0zM877.714 438.857c0-242.286-196.571-438.857-438.857-438.857s-438.857 196.571-438.857 438.857 196.571 438.857 438.857 438.857 438.857-196.571 438.857-438.857z" />
<glyph unicode="&#xe90e;" glyph-name="mexico" horiz-adv-x="1578" d="M27.049 955.492c-20.77-5.635-29.464-17.55-25.761-35.099 2.093-10.626 8.050-21.253 27.854-49.751 14.491-21.092 32.845-56.030 68.267-130.254 25.6-53.615 43.311-81.469 69.877-109.323 16.584-17.228 33.811-31.074 52.166-41.54 22.541-13.042 29.786-23.024 31.879-44.599 4.508-45.726 17.872-63.758 70.682-96.121 26.888-16.423 42.023-28.337 51.039-39.608l7.406-9.499 9.016 8.372c4.991 4.669 9.177 9.016 9.499 9.66s-38.964 67.784-87.265 149.253c-48.302 81.469-87.909 148.609-87.909 149.092s1.61 0.805 3.381 0.805c1.932 0 4.508 1.288 5.474 2.737 1.932 2.737 2.576 2.576 9.177-0.966 30.269-16.906 72.614-49.268 105.781-81.308 41.701-40.252 70.038-72.453 137.821-157.142 45.565-56.835 67.301-82.918 92.901-111.577 16.262-18.033 25.439-33.328 25.439-42.023 0-2.737-1.932-12.236-4.186-21.092-5.635-21.414-5.957-46.209-0.805-62.148 6.279-19.643 21.253-37.836 43.633-52.971 5.796-4.025 29.303-16.745 52.327-28.337s56.674-28.659 74.868-37.836c34.133-17.389 59.894-28.82 134.762-59.25 24.151-9.821 58.928-24.312 77.283-32.201 50.878-21.897 55.708-23.346 77.766-23.346h18.516l15.618 7.567c23.346 11.27 37.031 14.652 58.445 14.652 14.652-0.161 19.965-0.966 30.591-4.347 26.566-8.855 51.844-26.727 95.799-67.623 12.881-12.075 23.507-21.736 23.668-21.414 0.161 0.161-0.322 3.22-1.288 6.762-2.576 8.694-0.966 24.151 3.381 33.167 4.83 10.465 13.364 19.804 32.684 35.582 29.464 24.312 36.387 34.294 36.548 52.166 0 16.745-8.372 35.099-25.761 56.674-8.050 9.821-8.211 10.143-3.864 9.016 36.87-9.338 77.605-11.27 103.688-4.669 5.796 1.288 18.033 6.118 27.371 10.626 15.296 7.406 18.355 9.66 33.006 24.473 23.668 23.99 37.192 48.141 58.123 103.527 14.169 37.836 14.974 48.463 4.669 59.894-20.609 22.702-71.326 21.253-124.136-3.703-25.439-12.075-47.014-28.82-56.996-44.277-2.737-4.347-7.245-14.652-9.982-23.024-8.372-25.922-19.16-42.667-35.099-54.742-19.482-14.652-38.481-20.931-89.358-29.625-76.8-13.203-118.34-4.508-153.117 31.879-25.761 26.888-67.945 99.985-82.113 142.169-19.321 57.962-17.711 107.552 5.635 167.93 10.143 26.083 12.719 37.997 10.143 46.531-2.898 9.499-7.728 13.042-24.312 17.389-51.683 13.847-76.317 37.675-116.891 112.704-32.362 59.572-53.454 84.85-82.918 98.858-10.787 5.152-13.525 5.796-24.956 5.796-14.813 0-22.058-2.737-43.15-16.584-28.176-18.516-48.302-18.999-66.013-1.449-4.669 4.508-14.491 17.067-21.897 27.693-27.049 38.803-45.726 60.699-65.852 76.639-24.956 19.965-45.887 28.015-71.97 27.693-17.55-0.161-26.566-2.415-55.708-14.652-49.107-20.609-90.164-21.092-169.379-2.576-38.158 8.855-49.59 12.719-99.824 33.489-69.877 28.981-85.011 33.167-126.712 34.133-23.668 0.483-29.947 0.161-38.964-2.254z" />
<glyph unicode="&#xe90f;" glyph-name="world" d="M512 853.334c-212.096 0-384-171.904-384-384s171.904-384 384-384 384 171.904 384 384-171.904 384-384 384zM597.333 768c0-42.667-21.333-85.333-64-85.333s-64-42.667-64-85.333 0-128 0-128 42.667 0 42.667 128c0 23.595 19.072 42.667 42.667 42.667s42.667-19.072 42.667-42.667v-128c-23.552 0-42.667-19.115-42.667-42.667s19.115-42.667 42.667-42.667c23.595 0 42.667 19.115 42.667 42.667h42.667v85.333l42.667-42.667-42.667-42.667c0-128 0-128-85.333-170.667 0 42.667-42.667 42.667-128 42.667v85.333l-85.333 85.333v85.333c-42.667 0-42.667-42.667-42.667-42.667l-125.909 125.909c4.693 8.192 9.6 16.299 14.933 24.064l22.315 28.928c62.635 73.216 155.477 119.765 259.328 119.765 29.483 0 57.984-4.181 85.333-11.179v-31.488z" />
<glyph unicode="&#xe910;" glyph-name="vivienda" d="M1024 369.556l-512 397.426-512-397.428v162.038l512 397.426 512-397.428zM896 384v-384h-256v256h-256v-256h-256v384l384 288z" />
<glyph unicode="&#xe924;" glyph-name="file-empty" d="M917.806 730.924c-22.212 30.292-53.174 65.7-87.178 99.704s-69.412 64.964-99.704 87.178c-51.574 37.82-76.592 42.194-90.924 42.194h-496c-44.112 0-80-35.888-80-80v-864c0-44.112 35.888-80 80-80h736c44.112 0 80 35.888 80 80v624c0 14.332-4.372 39.35-42.194 90.924zM785.374 785.374c30.7-30.7 54.8-58.398 72.58-81.374h-153.954v153.946c22.984-17.78 50.678-41.878 81.374-72.572zM896 16c0-8.672-7.328-16-16-16h-736c-8.672 0-16 7.328-16 16v864c0 8.672 7.328 16 16 16 0 0 495.956 0.002 496 0v-224c0-17.672 14.326-32 32-32h224v-624z" />
<glyph unicode="&#xe927;" glyph-name="file-picture" d="M832 64h-640v128l192 320 263-320 185 128v-256zM832 480c0-53.020-42.98-96-96-96-53.022 0-96 42.98-96 96s42.978 96 96 96c53.020 0 96-42.98 96-96zM917.806 730.924c-22.212 30.292-53.174 65.7-87.178 99.704s-69.412 64.964-99.704 87.178c-51.574 37.82-76.592 42.194-90.924 42.194h-496c-44.112 0-80-35.888-80-80v-864c0-44.112 35.888-80 80-80h736c44.112 0 80 35.888 80 80v624c0 14.332-4.372 39.35-42.194 90.924zM785.374 785.374c30.7-30.7 54.8-58.398 72.58-81.374h-153.954v153.946c22.984-17.78 50.678-41.878 81.374-72.572zM896 16c0-8.672-7.328-16-16-16h-736c-8.672 0-16 7.328-16 16v864c0 8.672 7.328 16 16 16 0 0 495.956 0.002 496 0v-224c0-17.672 14.326-32 32-32h224v-624z" />
<glyph unicode="&#xe92b;" glyph-name="file-zip" d="M917.806 730.924c-22.208 30.292-53.174 65.7-87.178 99.704s-69.412 64.964-99.704 87.178c-51.574 37.82-76.592 42.194-90.924 42.194h-496c-44.112 0-80-35.888-80-80v-864c0-44.112 35.884-80 80-80h736c44.112 0 80 35.888 80 80v624c0 14.332-4.372 39.35-42.194 90.924v0 0zM785.374 785.374c30.7-30.7 54.8-58.398 72.58-81.374h-153.954v153.946c22.98-17.78 50.678-41.878 81.374-72.572v0 0zM896 16c0-8.672-7.328-16-16-16h-736c-8.672 0-16 7.328-16 16v864c0 8.672 7.328 16 16 16 0 0 495.956 0.002 496 0v-224c0-17.672 14.322-32 32-32h224v-624zM256 896h128v-64h-128v64zM384 832h128v-64h-128v64zM256 768h128v-64h-128v64zM384 704h128v-64h-128v64zM256 640h128v-64h-128v64zM384 576h128v-64h-128v64zM256 512h128v-64h-128v64zM384 448h128v-64h-128v64zM256 112c0-26.4 21.6-48 48-48h160c26.4 0 48 21.6 48 48v160c0 26.4-21.6 48-48 48h-80v64h-128v-272zM448 192v-64h-128v64h128z" />
<glyph unicode="&#xeadf;" glyph-name="file-pdf" d="M842.012 370.52c-13.648 13.446-43.914 20.566-89.972 21.172-31.178 0.344-68.702-2.402-108.17-7.928-17.674 10.198-35.892 21.294-50.188 34.658-38.462 35.916-70.568 85.772-90.576 140.594 1.304 5.12 2.414 9.62 3.448 14.212 0 0 21.666 123.060 15.932 164.666-0.792 5.706-1.276 7.362-2.808 11.796l-1.882 4.834c-5.894 13.592-17.448 27.994-35.564 27.208l-10.916 0.344c-20.202 0-36.664-10.332-40.986-25.774-13.138-48.434 0.418-120.892 24.98-214.738l-6.288-15.286c-17.588-42.876-39.63-86.060-59.078-124.158l-2.528-4.954c-20.46-40.040-39.026-74.028-55.856-102.822l-17.376-9.188c-1.264-0.668-31.044-16.418-38.028-20.644-59.256-35.38-98.524-75.542-105.038-107.416-2.072-10.17-0.53-23.186 10.014-29.212l16.806-8.458c7.292-3.652 14.978-5.502 22.854-5.502 42.206 0 91.202 52.572 158.698 170.366 77.93 25.37 166.652 46.458 244.412 58.090 59.258-33.368 132.142-56.544 178.142-56.544 8.168 0 15.212 0.78 20.932 2.294 8.822 2.336 16.258 7.368 20.792 14.194 8.926 13.432 10.734 31.932 8.312 50.876-0.72 5.622-5.21 12.574-10.068 17.32zM211.646 145.952c7.698 21.042 38.16 62.644 83.206 99.556 2.832 2.296 9.808 8.832 16.194 14.902-47.104-75.124-78.648-105.066-99.4-114.458zM478.434 760.314c13.566 0 21.284-34.194 21.924-66.254s-6.858-54.56-16.158-71.208c-7.702 24.648-11.426 63.5-11.426 88.904 0 0-0.566 48.558 5.66 48.558v0zM398.852 322.506c9.45 16.916 19.282 34.756 29.33 53.678 24.492 46.316 39.958 82.556 51.478 112.346 22.91-41.684 51.444-77.12 84.984-105.512 4.186-3.542 8.62-7.102 13.276-10.65-68.21-13.496-127.164-29.91-179.068-49.862v0zM828.902 326.348c-4.152-2.598-16.052-4.1-23.708-4.1-24.708 0-55.272 11.294-98.126 29.666 16.468 1.218 31.562 1.838 45.102 1.838 24.782 0 32.12 0.108 56.35-6.072 24.228-6.18 24.538-18.734 20.382-21.332v0zM917.806 730.924c-22.21 30.292-53.174 65.7-87.178 99.704s-69.412 64.964-99.704 87.178c-51.574 37.82-76.592 42.194-90.924 42.194h-496c-44.112 0-80-35.888-80-80v-864c0-44.112 35.886-80 80-80h736c44.112 0 80 35.888 80 80v624c0 14.332-4.372 39.35-42.194 90.924v0zM785.374 785.374c30.7-30.7 54.8-58.398 72.58-81.374h-153.954v153.946c22.982-17.78 50.678-41.878 81.374-72.572v0zM896 16c0-8.672-7.328-16-16-16h-736c-8.672 0-16 7.328-16 16v864c0 8.672 7.328 16 16 16 0 0 495.956 0.002 496 0v-224c0-17.672 14.324-32 32-32h224v-624z" />
<glyph unicode="&#xf19d;" glyph-name="escuela" horiz-adv-x="1317" d="M1013.714 473.143l10.286-180.571c4.571-80.571-164-146.286-365.714-146.286s-370.286 65.714-365.714 146.286l10.286 180.571 328-103.429c9.143-2.857 18.286-4 27.429-4s18.286 1.143 27.429 4zM1316.571 658.286c0-8-5.143-14.857-12.571-17.714l-640-201.143c-2.286-0.571-4-0.571-5.714-0.571s-3.429 0-5.714 0.571l-372.571 117.714c-32.571-25.714-55.429-88.571-60-165.714 21.714-12.571 36-35.429 36-62.286 0-25.714-13.143-48-33.143-61.143l33.143-247.429c0.571-5.143-1.143-10.286-4.571-14.286s-8.571-6.286-13.714-6.286h-109.714c-5.143 0-10.286 2.286-13.714 6.286s-5.143 9.143-4.571 14.286l33.143 247.429c-20 13.143-33.143 35.429-33.143 61.143 0 27.429 15.429 50.857 37.143 63.429 3.429 66.857 20.571 138.857 56 188.571l-190.286 59.429c-7.429 2.857-12.571 9.714-12.571 17.714s5.143 14.857 12.571 17.714l640 201.143c2.286 0.571 4 0.571 5.714 0.571s3.429 0 5.714-0.571l640-201.143c7.429-2.857 12.571-9.714 12.571-17.714z" />
</font>
</defs>
</svg>
